<?xml version="1.0" encoding="UTF-8"?>
<svg width="41px" height="33px" viewBox="0 0 41 33" version="1.1" xmlns="http://www.w3.org/2000/svg" xmlns:xlink="http://www.w3.org/1999/xlink">
    <!-- Generator: Sketch 49.1 (51147) - http://www.bohemiancoding.com/sketch -->
    <title>Group 4</title>
    <desc>Created with Sketch.</desc>
    <defs></defs>
    <g id="Page-1" stroke="none" stroke-width="1" fill="none" fill-rule="evenodd">
        <g id="0.0---Home" transform="translate(-1230.000000, -2238.000000)">
            <g id="Specialized-and-Comments" transform="translate(-133.000000, 2010.000000)">
                <g id="Group-2" transform="translate(1336.000000, 200.000000)">
                    <g id="Group-4" transform="translate(27.000000, 24.000000)">
                        <polygon id="Rectangle-2-Copy-4" fill="#292929" points="0 22.0260116 40.0578035 4 40.0578035 18.9739884 0 37"></polygon>
                        <g id="wordpress" transform="translate(4.000000, 4.000000)" fill="#23CF5F" fill-rule="nonzero">
                            <path d="M9.89806552,10.3043853 L8.07271692,10.3043853 L13.0491214,24 L15.8350632,16.2489928 L13.6750944,10.3043853 L11.7491825,10.3043853 L11.7491825,8.99938384 L20.2777145,8.99938384 L20.2777145,10.3043853 L18.2805519,10.3043853 L23.2568825,24 L25.0456828,19.0231093 C27.3922326,12.6467602 23.122429,10.6605039 23.122429,9.23746718 C23.122429,7.81443041 24.3073329,6.66089076 25.7688965,6.66089076 C25.8479738,6.66089076 25.9247621,6.66506009 26,6.67188917 C23.5235006,4.39579233 20.1841656,3 16.5096935,3 C11.7084256,3 7.47923127,5.3827024 5,8.99938384 L9.89791785,8.99938384 L9.89791785,10.3043853 L9.89806552,10.3043853 Z" id="Shape"></path>
                            <path d="M3,16.5345033 C3,21.9366354 5.83580109,26.6289203 10,29 L4.05285325,11 C3.37539077,12.6993542 3,14.5699547 3,16.5345033 Z" id="Shape"></path>
                            <path d="M28.2868844,10 C28.4758201,11.163333 28.4186246,12.4708474 28.1286975,13.7834505 L28.1812384,13.7834505 L27.9815125,14.3802358 C27.863172,14.8111572 27.7141533,15.2519612 27.544894,15.6850951 L23,29 C27.1649774,26.6761364 30,22.0877781 30,16.8063169 C30,14.331487 29.3769848,12.0090247 28.2868844,10 Z" id="Shape"></path>
                            <path d="M12,29.331327 C13.2881302,29.7648501 14.6621357,30 16.0893089,30 C17.4505712,30 18.7637632,29.7865483 20,29.3906109 L16.121521,18 L12,29.331327 Z" id="Shape"></path>
                            <path d="M28.1672132,4.83272389 C25.0507914,1.71629515 20.9072338,0 16.4999263,0 C12.0926187,0 7.94913486,1.71629515 4.83271309,4.83272389 C1.71629132,7.94915262 0,12.0926457 0,16.5000369 C0,20.9073543 1.71629132,25.0508474 4.83271309,28.1672761 C7.94913486,31.2837048 12.0926925,33 16.5,33 C20.9073075,33 25.0507914,31.2837048 28.1672869,28.1672761 C31.2837087,25.0508474 33,20.9072805 33,16.5000369 C32.9999263,12.0926457 31.283635,7.94915262 28.1672132,4.83272389 Z M16.4999263,31.8360477 C8.04363666,31.8360477 1.16394966,24.9563454 1.16394966,16.5000369 C1.16394966,8.04372835 8.04363666,1.16395226 16.4999263,1.16395226 C24.9562159,1.16395226 31.8359029,8.04372835 31.8359029,16.5000369 C31.8359029,24.9563454 24.9562896,31.8360477 16.4999263,31.8360477 Z" id="Shape"></path>
                        </g>
                    </g>
                </g>
            </g>
        </g>
    </g>
</svg>